<?xml version="1.0" encoding="utf-8"?>
<!-- Generator: Adobe Illustrator 16.0.0, SVG Export Plug-In . SVG Version: 6.00 Build 0)  -->
<!DOCTYPE svg PUBLIC "-//W3C//DTD SVG 1.1//EN" "http://www.w3.org/Graphics/SVG/1.1/DTD/svg11.dtd">
<svg version="1.1" id="Layer_1" xmlns="http://www.w3.org/2000/svg" xmlns:xlink="http://www.w3.org/1999/xlink" x="0px" y="0px"
	 width="92.684px" height="73.215px" viewBox="0 0 92.684 73.215" enable-background="new 0 0 92.684 73.215" xml:space="preserve">
<rect x="11.259" y="24.413" fill="#FFFFFF" width="71.843" height="40.321"/>
<g id="Captions" display="none">
</g>
<g id="Your_Icon">
	<path fill="#0C2340" d="M34.097,15.001c1.55,0.72,3.371-0.002,4.067-1.601c1.593-3.676,5.14-6.051,9.03-6.051
		c3.894,0,7.438,2.375,9.032,6.051c0.514,1.179,1.635,1.88,2.813,1.88c0.42,0,0.848-0.089,1.253-0.277
		c1.555-0.716,2.249-2.594,1.558-4.195C59.269,4.85,53.515,1,47.197,1c-6.317,0-12.069,3.85-14.652,9.808
		C31.848,12.409,32.546,14.287,34.097,15.001z"/>
	<path fill="#0C2340" d="M83.102,24.559c0-3.502-2.776-6.368-6.178-6.368H17.436c-3.396,0-6.177,2.866-6.177,6.368v9.689
		c4.821,0.871,9.776,1.56,14.842,2.067c-0.493,1.326-0.872,2.708-1.126,4.139c-4.668-0.481-9.247-1.115-13.716-1.903v26.186
		c0,3.504,2.778,6.367,6.177,6.367h59.489c3.396,0,6.177-2.863,6.177-6.367V38.551c-4.47,0.788-9.048,1.422-13.717,1.903
		c-0.254-1.429-0.633-2.813-1.127-4.139c5.066-0.506,10.021-1.195,14.844-2.066V24.559L83.102,24.559z M47.179,63.695
		c-10.186,0-18.473-8.545-18.473-19.049c0-0.651,0.03-1.295,0.094-1.934c0.058-0.562,0.145-1.111,0.245-1.658
		c0.284-1.522,0.752-2.979,1.365-4.352c0.531-1.19,1.186-2.314,1.932-3.358c0.045-0.063,0.092-0.125,0.138-0.187
		c0.698-0.951,1.482-1.828,2.339-2.627c0.103-0.094,0.198-0.19,0.301-0.281c0.238-0.215,0.487-0.421,0.739-0.625
		c0.163-0.131,0.329-0.259,0.497-0.384c0.234-0.176,0.471-0.354,0.712-0.519c0.378-0.258,0.77-0.503,1.167-0.731
		c0.193-0.112,0.396-0.209,0.594-0.313c0.28-0.149,0.564-0.293,0.857-0.428c0.197-0.09,0.398-0.179,0.603-0.264
		c0.354-0.146,0.714-0.282,1.079-0.407c0.138-0.047,0.271-0.103,0.41-0.146c0.502-0.16,1.015-0.293,1.532-0.408
		c0.152-0.034,0.312-0.06,0.464-0.089c0.404-0.078,0.813-0.143,1.229-0.194c0.162-0.02,0.324-0.042,0.489-0.057
		c0.557-0.051,1.117-0.087,1.688-0.087s1.133,0.036,1.688,0.087c0.165,0.016,0.325,0.038,0.487,0.057
		c0.412,0.05,0.823,0.115,1.229,0.194c0.154,0.029,0.312,0.055,0.464,0.089c0.518,0.115,1.028,0.248,1.53,0.408
		c0.14,0.044,0.272,0.099,0.413,0.146c0.364,0.125,0.724,0.261,1.077,0.407c0.201,0.084,0.403,0.173,0.603,0.264
		c0.29,0.135,0.576,0.279,0.859,0.428c0.194,0.104,0.396,0.201,0.592,0.313c0.397,0.228,0.786,0.474,1.167,0.731
		c0.242,0.166,0.478,0.342,0.712,0.519c0.166,0.125,0.332,0.252,0.497,0.384c0.25,0.202,0.498,0.41,0.741,0.625
		c0.1,0.091,0.196,0.188,0.299,0.281c0.854,0.799,1.642,1.676,2.339,2.627c0.046,0.062,0.094,0.125,0.137,0.187
		c0.748,1.044,1.398,2.167,1.935,3.358c0.61,1.363,1.075,2.812,1.358,4.326c0.22,1.172,0.344,2.378,0.344,3.615
		C65.653,55.15,57.366,63.695,47.179,63.695z"/>
</g>
<path fill="#0C2340" d="M51.511,44.575l6.011-9.226l1.633-1.502H48.559l2.558,1.478l-3.936,5.904l-3.936-5.904l2.558-1.478H35.205
	l1.623,1.483l6.023,9.245l-5.982,9.184l-1.663,1.542h10.597l-2.558-1.474l3.936-5.904l3.936,5.904l-2.558,1.474h10.596l-1.658-1.537
	L51.511,44.575z"/>
</svg>
