<?xml version="1.0" encoding="utf-8"?>
<!-- Generator: Adobe Illustrator 16.0.0, SVG Export Plug-In . SVG Version: 6.00 Build 0)  -->
<!DOCTYPE svg PUBLIC "-//W3C//DTD SVG 1.1//EN" "http://www.w3.org/Graphics/SVG/1.1/DTD/svg11.dtd">
<svg version="1.1" id="Layer_1" xmlns="http://www.w3.org/2000/svg" xmlns:xlink="http://www.w3.org/1999/xlink" x="0px" y="0px"
	 width="64px" height="61.732px" viewBox="0 0 64 61.732" enable-background="new 0 0 64 61.732" xml:space="preserve">
<path fill="#0C2340" d="M48.635,42.552l-2.098-3.635c-0.719,0.666-1.5,1.266-2.309,1.82l-1.019-1.76
	c4.699-3.279,7.783-8.721,7.783-14.89c0-10.024-8.127-18.151-18.154-18.151c-2.759,0-5.364,0.634-7.706,1.732L24.1,5.877
	c0.879-0.423,1.79-0.793,2.733-1.087l-2.087-3.618C15.31,4.516,8.531,13.524,8.531,24.091c0,12.891,10.084,23.461,22.774,24.26
	v1.359c-3.468,0.682-11.523,2.551-10.975,5.184h25.045c0.213-2.673-7.615-4.518-10.998-5.188v-1.373
	C39.801,47.99,44.748,45.883,48.635,42.552z M12.627,24.091c0-6.918,3.5-13.024,8.815-16.672l1.03,1.784
	c-4.701,3.28-7.784,8.722-7.784,14.888c0,10.026,8.127,18.157,18.154,18.157c2.76,0,5.363-0.637,7.705-1.734l1.027,1.775
	c-2.645,1.281-5.602,2.021-8.734,2.021C21.696,44.307,12.627,35.236,12.627,24.091z"/>
<path fill="#FFFFFF" d="M36.299,24.722l4.877-7.485l1.324-1.217h-8.596l2.075,1.199l-3.191,4.79l-3.195-4.79l2.076-1.199h-8.598
	l1.316,1.203l4.886,7.5l-4.854,7.45l-1.349,1.251h8.598l-2.076-1.194l3.195-4.79l3.191,4.79l-2.075,1.194H42.5l-1.345-1.246
	L36.299,24.722z"/>
</svg>
