<?xml version="1.0" encoding="utf-8"?>
<!-- Generator: Adobe Illustrator 16.0.0, SVG Export Plug-In . SVG Version: 6.00 Build 0)  -->
<!DOCTYPE svg PUBLIC "-//W3C//DTD SVG 1.1//EN" "http://www.w3.org/Graphics/SVG/1.1/DTD/svg11.dtd">
<svg version="1.1" id="Layer_1" xmlns="http://www.w3.org/2000/svg" xmlns:xlink="http://www.w3.org/1999/xlink" x="0px" y="0px"
	 width="68.139px" height="62.133px" viewBox="0 0 68.139 62.133" enable-background="new 0 0 68.139 62.133" xml:space="preserve">
<rect x="7.366" y="7.532" fill="#FFFFFF" width="51.16" height="34.985"/>
<path fill="#0C2340" d="M59.674,7.211c-0.052-0.81-0.624-1.451-1.333-1.451H7.365c-0.707,0-1.279,0.64-1.332,1.451l-0.011,40.29
	c0,0.869,0.601,1.571,1.342,1.571H58.34c0.741,0,1.345-0.702,1.345-1.571L59.674,7.211z M8.324,8.54h49.058v32.999H8.324V8.54z"/>
<path fill="#0C2340" d="M41.441,56.602c-2.147-0.627-2.685-3.645-2.685-6.153H26.951c0,2.511-0.538,5.526-2.684,6.153
	c-0.521,0.153-0.537,1.254,0,1.254h8.585h8.587C41.976,57.859,41.961,56.756,41.441,56.602z"/>
<path fill="#0C2340" d="M36.485,24.587l5.038-7.734l1.368-1.259h-8.882l2.145,1.239l-3.298,4.949l-3.3-4.949l2.145-1.239h-8.884
	l1.36,1.243l5.049,7.75l-5.016,7.697l-1.394,1.294H31.7l-2.145-1.236l3.3-4.948l3.298,4.948l-2.145,1.236h8.882l-1.391-1.29
	L36.485,24.587z"/>
<path fill="#FFFFFF" d="M33.776,45.501l1.28-1.966l0.349-0.319h-2.257l0.545,0.314l-0.838,1.258l-0.839-1.258l0.545-0.314h-2.257
	l0.346,0.315l1.283,1.97l-1.275,1.956l-0.354,0.329h2.257l-0.545-0.314l0.839-1.258l0.838,1.258l-0.545,0.314h2.257l-0.354-0.328
	L33.776,45.501z"/>
</svg>
