<?xml version="1.0" encoding="utf-8"?>
<!-- Generator: Adobe Illustrator 16.0.0, SVG Export Plug-In . SVG Version: 6.00 Build 0)  -->
<!DOCTYPE svg PUBLIC "-//W3C//DTD SVG 1.1//EN" "http://www.w3.org/Graphics/SVG/1.1/DTD/svg11.dtd">
<svg version="1.1" id="Layer_1" xmlns="http://www.w3.org/2000/svg" xmlns:xlink="http://www.w3.org/1999/xlink" x="0px" y="0px"
	 width="160px" height="144.835px" viewBox="0 0 160 144.835" enable-background="new 0 0 160 144.835" xml:space="preserve">
<g>
	<ellipse fill="#0C2340" cx="39.272" cy="35.002" rx="11.869" ry="11.169"/>
</g>
<g>
	<ellipse fill="#0C2340" cx="122.357" cy="35.002" rx="11.869" ry="11.169"/>
</g>
<g>
	<path fill="#0C2340" d="M134.229,48.406h-21.283L85.029,22.136c-0.006-0.007-0.014-0.014-0.021-0.021
		c-1.014-0.956-2.304-1.49-3.628-1.61c-1.702-0.154-3.461,0.384-4.767,1.61c-0.007,0.005-0.011,0.014-0.018,0.021L48.682,48.406
		H27.401c-6.556,0-11.87,4.999-11.87,11.169v22.34c0,6.17,5.314,11.168,11.87,11.168v44.678H51.14V93.083V61.887l29.674-27.924
		l29.674,27.924v31.196v44.678h23.738V93.083c6.555,0,11.871-4.998,11.871-11.168v-22.34
		C146.098,53.404,140.781,48.406,134.229,48.406z"/>
</g>
<g>
	<ellipse fill="#0C2340" cx="81.645" cy="58.355" rx="12.66" ry="11.911"/>
</g>
<g>
	<path fill="#0C2340" d="M94.305,84.824c0-6.578-5.67-11.911-12.66-11.911c-6.99,0-12.657,5.333-12.657,11.911V106h5.627v31.766
		h14.062V106h5.628V84.824L94.305,84.824z"/>
</g>
<path fill="#FFFFFF" d="M84.447,88.99l3.656-5.61l0.993-0.914h-6.444l1.556,0.898l-2.394,3.593l-2.395-3.593l1.557-0.898H74.53
	l0.986,0.903l3.664,5.621l-3.639,5.585l-1.011,0.939h6.446l-1.557-0.896l2.395-3.592l2.394,3.592l-1.556,0.896h6.444l-1.008-0.936
	L84.447,88.99z"/>
</svg>
