<?xml version="1.0" encoding="utf-8"?>
<!-- Generator: Adobe Illustrator 16.0.0, SVG Export Plug-In . SVG Version: 6.00 Build 0)  -->
<!DOCTYPE svg PUBLIC "-//W3C//DTD SVG 1.1//EN" "http://www.w3.org/Graphics/SVG/1.1/DTD/svg11.dtd">
<svg version="1.1" id="Layer_1" xmlns="http://www.w3.org/2000/svg" xmlns:xlink="http://www.w3.org/1999/xlink" x="0px" y="0px"
	 width="64px" height="63px" viewBox="0 0 64 63" enable-background="new 0 0 64 63" xml:space="preserve">
<path fill="#0C2340" d="M57.537,31.578C57.537,31.577,57.537,31.577,57.537,31.578c0-14.02-11.365-25.385-25.383-25.385
	c-10.038,0-18.712,5.826-22.833,14.281l3.928,3.93c2.918-7.589,10.277-12.976,18.896-12.976c11.148,0,20.19,9.014,20.236,20.15
	c-0.324,0-4.083,0-4.083,0l6.693,6.697l6.698-6.697H57.537z"/>
<path fill="#0C2340" d="M32.141,51.9c-11.177,0-20.237-9.058-20.237-20.234c0-0.03,0.001-0.059,0.001-0.088c0.306,0,4.085,0,4.085,0
	l-6.692-6.697L2.6,31.579h4.168l0,0c0,14.019,11.365,25.384,25.384,25.384c10.032,0,18.704-5.822,22.825-14.271l-3.894-3.896
	C48.201,46.453,40.809,51.9,32.141,51.9z"/>
<circle fill="#0C2340" cx="32.153" cy="31.577" r="15.05"/>
<path fill="#FFFFFF" d="M34.73,31.232l3.786-5.814l1.029-0.946H32.87l1.61,0.931l-2.479,3.72l-2.48-3.72l1.612-0.931h-6.679
	l1.022,0.935l3.796,5.825l-3.771,5.787l-1.048,0.973h6.679l-1.612-0.93l2.48-3.72l2.479,3.72l-1.61,0.93h6.676l-1.044-0.97
	L34.73,31.232z"/>
</svg>
