<?xml version="1.0" encoding="utf-8"?>
<!-- Generator: Adobe Illustrator 16.0.0, SVG Export Plug-In . SVG Version: 6.00 Build 0)  -->
<!DOCTYPE svg PUBLIC "-//W3C//DTD SVG 1.1//EN" "http://www.w3.org/Graphics/SVG/1.1/DTD/svg11.dtd">
<svg version="1.1"
	 id="Layer_1" xmlns:svg="http://www.w3.org/2000/svg" xmlns:rdf="http://www.w3.org/1999/02/22-rdf-syntax-ns#" xmlns:cc="http://creativecommons.org/ns#" xmlns:dc="http://purl.org/dc/elements/1.1/"
	 xmlns="http://www.w3.org/2000/svg" xmlns:xlink="http://www.w3.org/1999/xlink" x="0px" y="0px" width="160px" height="160px"
	 viewBox="0 0 160 160" enable-background="new 0 0 160 160" xml:space="preserve">
<circle fill="#FFFFFF" cx="82.334" cy="128.667" r="12.833"/>
<path opacity="0.99" fill="#0C2340" enable-background="new    " d="M33.469,107.62c-1.148,0-2.14,3.02-2.635,7.459
	c6.955,1.075,20.451,3.076,29.066,3.832C46.934,114.083,33.469,107.62,33.469,107.62z M26.349,115.985
	c-1.645,0-2.969,6.191-2.969,13.883c0,7.69,1.325,13.882,2.969,13.882c0,0,29.872-4.831,38.872-4.831h5.797V136.9l-2.617-1.512
	c-0.914-0.527-1.225-1.693-0.697-2.608l1.51-2.614l-1.51-2.618c-0.528-0.915-0.218-2.075,0.697-2.604l2.617-1.514v-2.613H65.22
	C56.221,120.816,26.349,115.985,26.349,115.985z M134.319,115.985c0,0-29.871,4.831-38.87,4.831h-1.105v2.613l2.617,1.514
	c0.916,0.529,1.225,1.689,0.698,2.604l-1.511,2.618l1.511,2.614c0.526,0.915,0.218,2.081-0.698,2.608l-2.617,1.512v2.019h1.105
	c8.997,0,38.87,4.831,38.87,4.831c1.646,0,2.969-6.191,2.969-13.882C137.288,122.177,135.965,115.985,134.319,115.985z
	 M85.965,116.318c-0.309-0.01-0.617,0.066-0.904,0.231l-2.379,1.373l-2.38-1.373c-0.285-0.165-0.597-0.241-0.904-0.231
	c-0.585,0.014-1.147,0.319-1.463,0.866l-1.374,2.378h-2.746c-0.96,0-1.733,0.773-1.733,1.733v2.747l-2.379,1.375
	c-0.832,0.479-1.113,1.539-0.633,2.369l1.372,2.379l-1.372,2.377c-0.479,0.831-0.198,1.889,0.633,2.369l2.379,1.374v2.742
	c0,0.965,0.773,1.735,1.733,1.735h2.746l1.374,2.379c0.481,0.833,1.537,1.115,2.368,0.636l2.38-1.373l2.379,1.373
	c0.833,0.479,1.887,0.197,2.365-0.636l1.375-2.379h2.748c0.959,0,1.732-0.772,1.732-1.735v-2.742l2.378-1.374
	c0.833-0.48,1.116-1.538,0.636-2.369l-1.373-2.377l1.373-2.379c0.48-0.83,0.197-1.891-0.636-2.369l-2.378-1.375v-2.747
	c0-0.96-0.773-1.733-1.732-1.733h-2.748l-1.375-2.378C87.113,116.638,86.551,116.33,85.965,116.318z M82.682,120.321
	c5.436,0,9.843,4.407,9.843,9.845c0,5.437-4.407,9.842-9.843,9.842c-5.437,0-9.844-4.405-9.844-9.842
	C72.837,124.729,77.245,120.321,82.682,120.321z M93.94,141.093c-0.349,0.448-0.892,0.732-1.505,0.732h-3.02l-1.516,2.619
	c-0.451,0.784-1.367,1.124-2.198,0.874l3.044,5.273l1.99-5.8l6.015,1.171L93.94,141.093z M71.625,141.316l-4.463,7.729l6.017-1.173
	l1.992,5.794l4.938-8.55l-0.046,0.023c-0.915,0.529-2.077,0.219-2.605-0.696l-1.513-2.618h-3.021
	C72.422,141.825,71.965,141.635,71.625,141.316L71.625,141.316z M85.201,130.233l3.291-5.055l0.895-0.82h-5.803l1.4,0.808
	l-2.155,3.234l-2.156-3.234l1.401-0.808H76.27l0.89,0.812l3.298,5.063l-3.277,5.03l-0.911,0.845h5.805l-1.401-0.807l2.156-3.235
	l2.155,3.235l-1.4,0.807h5.803l-0.908-0.843L85.201,130.233z M80.001,8.769c-0.692,0-1.382,0.115-1.913,0.348L14.053,37.279
	c-1.06,0.465-1.06,1.215,0,1.68L78.088,67.12c1.06,0.466,2.766,0.466,3.825,0l64.035-28.161c1.058-0.465,1.058-1.215,0-1.68
	L81.913,9.117C81.383,8.884,80.691,8.769,80.001,8.769z M128.697,49.887l-3.129,1.377v14.154c-1.277,0.604-2.088,1.887-2.088,3.297
	c0,1.227,0.618,2.371,1.641,3.047l-1.746,7.132h7.519l-1.747-7.132c1.021-0.676,1.639-1.82,1.639-3.047
	c0-1.41-0.813-2.691-2.088-3.297V49.887z M41.442,54.346v16.158c0,13.91,17.197,25.109,38.559,25.109s38.557-11.199,38.557-25.109
	V54.346L81.913,70.461c-1.06,0.467-2.784,0.506-3.825,0L41.442,54.346z"/>
</svg>
