<?xml version="1.0" encoding="utf-8"?>
<!-- Generator: Adobe Illustrator 16.0.0, SVG Export Plug-In . SVG Version: 6.00 Build 0)  -->
<!DOCTYPE svg PUBLIC "-//W3C//DTD SVG 1.1//EN" "http://www.w3.org/Graphics/SVG/1.1/DTD/svg11.dtd">
<svg version="1.1" id="Layer_1" xmlns="http://www.w3.org/2000/svg" xmlns:xlink="http://www.w3.org/1999/xlink" x="0px" y="0px"
	 width="160px" height="144.835px" viewBox="0 0 160 144.835" enable-background="new 0 0 160 144.835" xml:space="preserve">
<g>
	<path fill="#0C2340" d="M78.622,127.613l1.168-1c28.552-24.158,52.349-44.301,54.286-107.803
		c-13.307,5.12-22.447,7.997-30.598,7.997c-8.443,0.033-15.608-3.01-24.857-9.769c-9.25,6.759-16.416,9.803-24.896,9.769
		c-8.153,0-17.255-2.877-30.598-7.997c1.973,63.502,25.772,83.645,54.286,107.803L78.622,127.613z"/>
</g>
<path fill="#FFFFFF" d="M87.328,65.542l11.646-17.875l3.163-2.909H81.608l4.954,2.863l-7.624,11.44l-7.627-11.44l4.957-2.863H55.734
	l3.144,2.873l11.67,17.912L58.955,83.336l-3.221,2.99h20.533l-4.956-2.857l7.626-11.44l7.624,11.44l-4.954,2.857h20.529l-3.214-2.98
	L87.328,65.542z"/>
</svg>
