<?xml version="1.0" encoding="utf-8"?>
<!-- Generator: Adobe Illustrator 20.1.0, SVG Export Plug-In . SVG Version: 6.00 Build 0)  -->
<svg version="1.1" id="Layer_1" xmlns="http://www.w3.org/2000/svg" xmlns:xlink="http://www.w3.org/1999/xlink" x="0px" y="0px"
	 viewBox="0 0 485 485" style="enable-background:new 0 0 485 485;" xml:space="preserve">
<style type="text/css">
	.st0{display:none;}
	.st1{display:inline;fill:#010101;}
</style>
<g class="st0">
	<path class="st1" d="M251.8,221.7c-4.7,0-7.7,2.3-9.4,4.4c-1.7-2.1-4.7-4.4-9.4-4.4c-8,0-13.4,7.4-13.4,14.3
		c0,10.1,19.3,23.6,21.6,25.1c0.4,0.2,0.8,0.4,1.2,0.4s0.8-0.1,1.2-0.4c2.2-1.5,21.6-15,21.6-25.1
		C265.1,229.1,259.8,221.7,251.8,221.7z M242.4,256.8c-7.6-5.4-18.5-15.1-18.5-20.7c0-4.2,3.2-10.1,9.1-10.1c5.4,0,7.3,4.7,7.4,4.9
		c0.3,0.8,1.1,1.4,2,1.4l0,0c0.9,0,1.7-0.5,2-1.4c0.1-0.2,2-4.9,7.4-4.9c5.9,0,9.1,5.9,9.1,10.1C260.9,241.7,250,251.4,242.4,256.8z
		"/>
</g>
<path d="M129.3,352.9c0-7.8,0.8-15,2.4-21.8c1.6-6.8,4-13.2,7.2-19.3c3.2-6.1,7.3-12.1,12.1-18c4.9-5.9,10.5-11.8,17-17.7l14.4-13.4
	c4-3.5,7.1-6.7,9.5-9.7c2.4-3,4.3-5.9,5.6-8.9s2.2-6.2,2.6-9.7c0.4-3.5,0.6-7.4,0.6-11.9c0-14.5-5.8-21.8-17.3-21.8
	c-4.5,0-8,0.9-10.5,2.7c-2.6,1.8-4.5,4.3-5.9,7.4c-1.4,3.1-2.3,6.8-2.7,10.9c-0.4,4.1-0.6,8.5-0.6,13.1h-34.2v-6.7
	c0-16.4,4.4-28.9,13.1-37.7s22.6-13.1,41.4-13.1c17.8,0,31.1,4.1,39.7,12.4c8.6,8.3,12.9,20.1,12.9,35.4c0,5.6-0.5,10.9-1.5,15.7
	s-2.6,9.5-4.7,14c-2.1,4.5-5,8.8-8.4,13c-3.5,4.2-7.7,8.5-12.6,13l-19.8,18.3c-5.3,4.8-9.4,9.5-12.4,14s-4.9,8.5-5.7,11.8h66.2v27.8
	H129.3V352.9z"/>
<path d="M287.1,325c2.6,5.4,7.7,8.1,15.5,8.1c4.3,0,7.7-0.8,10.3-2.2c2.6-1.5,4.5-3.5,5.9-6.1s2.3-5.6,2.7-9.1
	c0.4-3.5,0.6-7.1,0.6-10.9c0-4-0.3-7.7-0.9-11.3c-0.6-3.5-1.7-6.7-3.3-9.5c-1.7-2.8-4-5-6.9-6.7c-3-1.6-6.9-2.5-11.9-2.5h-11.9
	v-23.3h11.7c3.8,0,7-0.8,9.5-2.4c2.6-1.6,4.6-3.6,6.2-6.2c1.6-2.6,2.7-5.5,3.5-8.8c0.7-3.3,1.1-6.8,1.1-10.4
	c0-8.4-1.4-14.4-4.2-17.8c-2.8-3.5-7.1-5.2-12.9-5.2c-3.8,0-6.9,0.7-9.3,2.1c-2.4,1.4-4.3,3.4-5.6,5.9c-1.3,2.6-2.2,5.6-2.6,9
	c-0.4,3.5-0.6,7.3-0.6,11.4h-32.7c0-17.5,4.4-30.5,13.1-39c8.8-8.5,21.6-12.8,38.4-12.8c16,0,28.5,3.6,37.3,10.9
	c8.8,7.3,13.3,18.7,13.3,34.2c0,10.6-2.4,19.2-7.1,25.9s-11.3,10.9-19.7,12.8v0.5c11.4,1.8,19.5,6.4,24.2,13.8s7.1,16.6,7.1,27.6
	c0,5.9-0.7,12.1-2.2,18.3c-1.5,6.3-4.4,12-8.7,17.1c-4.3,5.1-10.2,9.3-17.7,12.4s-17.4,4.7-29.6,4.7c-17,0-29.7-4.6-38.2-13.9
	c-8.4-9.3-12.6-22.4-12.6-39.4v-0.7H283C283.1,311.8,284.5,319.7,287.1,325z"/>
<path d="M397.5,94.5H359V81c0-4.6-3.7-8.3-8.3-8.3s-8.3,3.7-8.3,8.3v13.5H133.1V81c0-4.6-3.7-8.3-8.3-8.3s-8.3,3.7-8.3,8.3v13.5H87
	c-13.7,0-24.8,11.1-24.8,24.8v267.2c0,13.7,11.1,24.8,24.8,24.8h310.4c13.7,0,24.8-11.1,24.8-24.8V119.3
	C422.3,105.6,411.2,94.5,397.5,94.5z M87,386.5v-238h310.4v238H87z"/>
</svg>
