<?xml version="1.0" encoding="utf-8"?>
<!-- Generator: Adobe Illustrator 20.1.0, SVG Export Plug-In . SVG Version: 6.00 Build 0)  -->
<svg version="1.1" id="Layer_1" xmlns="http://www.w3.org/2000/svg" xmlns:xlink="http://www.w3.org/1999/xlink" x="0px" y="0px"
	 viewBox="0 0 485 485" style="enable-background:new 0 0 485 485;" xml:space="preserve">
<g id="Double_T_x5F_Red_x5F_1C_1_">
	<path id="Black_1_" d="M338.2,417.5c-4.2,0-7.6-3.4-7.6-7.6s3.4-7.6,7.6-7.6s7.6,3.4,7.6,7.6C345.7,414.1,342.3,417.5,338.2,417.5z
		 M338.2,403.5c-3.5,0-6.4,2.9-6.4,6.4s2.9,6.4,6.4,6.4s6.4-2.9,6.4-6.4S341.7,403.5,338.2,403.5z M342.5,414H340l-2.3-3.1h-0.8v3.1
		h-2.1v-8.4h3.4c0.5,0,0.9,0,1.2,0.1c0.3,0.1,0.7,0.2,1,0.4s0.5,0.4,0.7,0.7s0.3,0.7,0.3,1.1c0,0.6-0.1,1.2-0.4,1.6s-0.7,0.7-1.2,1
		L342.5,414z M339.1,408.1c0-0.2,0-0.4-0.1-0.5s-0.2-0.3-0.4-0.3c-0.1-0.1-0.3-0.1-0.4-0.1c-0.2,0-0.4,0-0.6,0h-0.7v2.2h0.6
		c0.3,0,0.5,0,0.7-0.1c0.2,0,0.4-0.1,0.5-0.2s0.2-0.2,0.3-0.4C339.1,408.6,339.1,408.4,339.1,408.1z M165.6,166.8h-56.5V82.5h269.1
		v84.3h-57.8v-26.1h-41.7v41.1h-34.8v-71.5h105.5L325,135.9v26.5l24.5-23.2v-29l24-23.2c-17.9,0-251.4,0-259.7,0
		c0,6.2,0,60.6,0,75.1l22.5-22.4v-29.5H244l-30.9,26.6v44.9h-4.6v-40.9h-42.8L165.6,166.8L165.6,166.8z M151.6,188.4h183.6v41.5
		h-28.8v-14.1h-48.8V352h0.1l0,0h21l0,0l0,0v28.7h-70v-28.6h20.6V215.8h-48.7v14.1h-28.9v-41.5L151.6,188.4L151.6,188.4z
		 M156.3,225.5l10.2-9.7v-13.6h76.8l-9.4,9.1v145.3h-20.6c0,0,0,9.6,0,19.1l9-9.7h21h21.9l9.2-9.6H253l-9.7,9.6V202.2h78.2
		l-10.4,9.4v13.9l10.4-9.8v-13.6l9.2-9.3H156.3V225.5z M278.6,222.2h-14.1v123.2l9.5-9.6h28.2L286,351.3v36.5h-84.1v-7.9L184,398.3
		c0-29.3,0-62.6,0-62.6h29.2V222.2h-4.6v108.9h-29.2v72h127.8v-71.9h-28.5v-109H278.6z M391.9,181.9h-42.5l0.1,62.5h-56.9v72.8h28.3
		v99.9H165.1v-100h28.3l0.1-72.7h-57.4v-62.5h-43V67.5H392v114.4H391.9z M385.1,75h-284v99.3h71.4v-26.5h29.2v34h-56.5v55.1h42.4
		v-14.6h13.9v102.5h-28.8v85H314v-84.9h-28.4V222.2h14v14.6h42.1v-55.1h-56.2v-34H314v26.5h71.1V75z"/>
</g>
</svg>
