<?xml version="1.0" encoding="utf-8"?>
<!-- Generator: Adobe Illustrator 20.1.0, SVG Export Plug-In . SVG Version: 6.00 Build 0)  -->
<svg version="1.1" id="Layer_1" xmlns="http://www.w3.org/2000/svg" xmlns:xlink="http://www.w3.org/1999/xlink" x="0px" y="0px"
	 viewBox="0 0 485 485" style="enable-background:new 0 0 485 485;" xml:space="preserve">
<path d="M129.7,383.4c0.7,7.2,3.7,12.8,10.8,15.5c6.8,2.6,15.7,0.5,20.2-4.7c14.4-16.7,28.8-33.4,43.1-50.1c12-14,24.1-28,36.1-42.1
	c1.9-2.3,4.1-3.2,7-3.1c15.9,0.1,31.8,0.1,47.7,0c14-0.1,22.5-6.4,26.8-19.7c0.9-2.8,1.6-5.6,2.2-8.5c9.4-45,18.7-90,28-135
	c2.1-10.1,4.7-20.1,3.4-30.7c-1.1-9.1-6.3-15.8-15.1-18.4c-2.3-0.7-4.7-1.1-7-1.6H154.8c-3.5,1-7.2,1.5-10.4,3.3
	c-10.2,5.6-14.8,14.4-14.8,25.8c0,88.6,0,177.2,0,265.9C129.6,381.1,129.6,382.2,129.7,383.4z M164.8,131.2c0-8.2,2.8-11,11.1-11
	c43.7,0,87.4,0,131.1,0c8.1,0,11.5,4,9.9,12c-2.2,11.3-4.6,22.5-7,33.8c-1.2,5.5-4.6,8.1-10.3,8.1c-20.6,0-41.2,0-61.8,0
	c-10.6,0-16.1,5.4-16.1,16c0,1.7,0,3.4,0,5c0.1,8.3,6,14.2,14.3,14.2c17.7,0.1,35.3,0,53,0c2.2,0,4.4,0.1,6.3,1.5
	c3.1,2.2,4.1,5.3,3.4,8.8c-2.4,12.4-4.9,24.8-7.6,37.2c-0.9,4.2-4.1,6.5-8.8,6.5c-11.4,0-22.8,0-34.2,0c-5.4,0-10.9,0.3-16.3,0.5
	c-3.6,0.1-6.7,1.5-9.1,4.2c-7.3,8.2-13.9,17-20.8,25.5c-11.9,14.7-23.7,29.5-35.5,44.3c-0.3,0.4-0.7,0.8-1.2,1.3
	c-0.9-1.4-0.6-2.6-0.6-3.7C164.8,267.3,164.8,199.3,164.8,131.2z"/>
</svg>
