<?xml version="1.0" encoding="utf-8"?>
<!-- Generator: Adobe Illustrator 20.1.0, SVG Export Plug-In . SVG Version: 6.00 Build 0)  -->
<svg version="1.1" id="Layer_1" xmlns="http://www.w3.org/2000/svg" xmlns:xlink="http://www.w3.org/1999/xlink" x="0px" y="0px"
	 viewBox="0 0 485 485" style="enable-background:new 0 0 485 485;" xml:space="preserve">
<path d="M260.7,282.4c-10.3,0-20.6-5.9-26.8-15.3c-4.6-6.9-6.6-15-5.6-22.8c1-8.2,5.1-15,11.5-19.2l54.8-36.1
	c4.2-2.7,9.1-4.2,14.2-4.2c10.3,0,20.6,5.9,26.8,15.3c9.7,14.7,7,33.5-5.9,42.1l-54.8,36.1C270.8,280.9,265.9,282.4,260.7,282.4z
	 M308.8,197.6c-2.6,0-5,0.7-7.1,2.1l-54.8,36.1c-3.2,2.1-5.3,5.7-5.8,10c-0.6,4.7,0.7,9.8,3.6,14.1c3.9,5.9,10,9.5,16,9.5
	c2.6,0,5-0.7,7.1-2.1l54.8-36.1c7-4.6,8-15.5,2.2-24.2C321,201.2,314.8,197.6,308.8,197.6z"/>
<path d="M324.9,237.5l-3.5,2.3c1.5-0.3,3-0.4,4.5-0.4C325.6,238.8,325.3,238.1,324.9,237.5z"/>
<path d="M277.3,330.6c-10.3,0-20.6-5.9-26.8-15.3c-9.7-14.7-7-33.5,5.9-42.1l54.8-36.1c4.2-2.7,9.1-4.2,14.2-4.2
	c10.3,0,20.6,5.9,26.8,15.3c9.7,14.7,7,33.5-5.9,42.1l-54.8,36.1C287.3,329.2,282.4,330.6,277.3,330.6z M325.3,245.8
	c-2.6,0-5,0.7-7.1,2.1L263.5,284c-7,4.6-8,15.5-2.3,24.2c3.9,5.9,10,9.5,16.1,9.5c2.6,0,5-0.7,7.1-2.1l54.8-36.1
	c7-4.6,8-15.5,2.2-24.2C337.5,249.5,331.3,245.8,325.3,245.8z"/>
<path d="M342.7,284.9l-7,4.6c0,0,0,0,0,0.1c4.3-1.9,9.2-2.2,13.9-0.9c-1.1-2.2-2.2-4.5-3.3-6.9C345.2,283,344,284,342.7,284.9z"/>
<path d="M400.7,95.3c-7.2-13.1-17.5-15.8-24.9-15.8c-12.1,0-22.8,7.3-24.1,8.3L178,205.2l-39.2-59.5c-8.5-12.8-18.9-15.5-26.1-15.5
	c-11,0-19.9,6.2-21.8,7.5c-10.9,6.8-16.1,17.2-15.2,29.9c0.7,9.1,4.4,16.4,4.6,16.7c0.1,0.1,0.1,0.2,0.2,0.3l37.7,62.4l-5.7,46.6
	c-0.2,1.6,0.2,3.3,1.2,4.6L192.1,403c1.2,1.6,3.1,2.6,5.2,2.6h64.4l0,0c1.3,0,2.5-0.4,3.6-1.1l87.3-58.1l0.1-0.1
	c3.4-2.4,7.7-7.2,9.8-13.9c-0.4,0.4-0.9,0.7-1.4,1l-54.8,36.1c-4.6,3.1-10.2,3.8-15.6,2.5l-31,20.6h-59.2l-74.9-100.1l5.6-46.3
	c0.2-1.4-0.1-2.9-0.9-4.1L91.6,178c-1.3-2.6-9.3-20,6.3-29.6c0.2-0.1,0.4-0.3,0.6-0.4c0.1-0.1,6.6-5,14.1-5c6,0,11,3.2,15.4,9.7
	l42.8,65c0.9,1.4,2.4,2.4,4.1,2.8c1.7,0.3,3.4,0,4.9-1L359,98.3c0.1,0,0.1-0.1,0.2-0.1c0.1-0.1,8.3-5.9,16.6-5.9
	c5.9,0,10.3,2.9,13.7,9.3c0.1,0.1,0.1,0.3,0.2,0.4c0.9,1.5,8.5,14.5-2.7,23l-93.3,64.7c-2.6,1.8-3.5,5.3-2.1,8.1
	c0,0,0.1,0.3,0.3,0.7l6.4-4.2c4.5-3,9.9-3.8,15.2-2.6l81-56.1c0.1,0,0.1-0.1,0.2-0.1C411.4,122.8,406,103.8,400.7,95.3z"/>
<path d="M295.7,379.1c-10.3,0-20.6-5.9-26.8-15.3c-9.7-14.7-7-33.5,5.9-42.1l54.8-36.1c4.2-2.7,9.1-4.2,14.2-4.2
	c10.3,0,20.6,5.9,26.8,15.3c9.7,14.7,7,33.5-5.9,42.1l-54.8,36.1C305.7,377.7,300.8,379.1,295.7,379.1z M343.7,294.4
	c-2.6,0-5,0.7-7.1,2.1l-54.8,36.1c-7,4.6-8,15.5-2.3,24.2c3.9,5.9,10,9.5,16,9.5c2.6,0,5-0.7,7.1-2.1l54.8-36.1
	c7-4.6,8-15.5,2.3-24.2C355.9,298,349.8,294.4,343.7,294.4z"/>
</svg>
