<?xml version="1.0" encoding="utf-8"?>
<!-- Generator: Adobe Illustrator 20.1.0, SVG Export Plug-In . SVG Version: 6.00 Build 0)  -->
<svg version="1.1" id="Layer_1" xmlns="http://www.w3.org/2000/svg" xmlns:xlink="http://www.w3.org/1999/xlink" x="0px" y="0px"
	 viewBox="0 0 485 485" style="enable-background:new 0 0 485 485;" xml:space="preserve">
<path d="M242.5,400.4l-5.6-2.8c-28.5-14.4-72.4-43.5-109.9-81.8c-29.2-29.9-64.1-75.5-64-123c0-25.1,8.4-48.5,24.3-67.5
	c14.5-17.4,34.5-30.1,56.4-35.8c20.6-5.4,41.4-4.4,60.2,2.9c14.9,5.8,28.1,15.4,38.7,28.3c10.6-12.9,23.7-22.5,38.6-28.3
	c18.8-7.3,39.6-8.3,60.2-2.9c21.9,5.7,42,18.5,56.4,35.8c15.9,19,24.2,42.4,24.3,67.5c0.1,88.3-117.2,176.1-173.9,204.8L242.5,400.4
	z"/>
</svg>
