<?xml version="1.0" encoding="utf-8"?>
<!-- Generator: Adobe Illustrator 20.1.0, SVG Export Plug-In . SVG Version: 6.00 Build 0)  -->
<svg version="1.1" id="Layer_1" xmlns="http://www.w3.org/2000/svg" xmlns:xlink="http://www.w3.org/1999/xlink" x="0px" y="0px"
	 viewBox="0 0 485 485" style="enable-background:new 0 0 485 485;" xml:space="preserve">
<g>
	<path d="M320.5,85h-156C120.7,85,85,120.7,85,164.5v156.1c0,43.8,35.6,79.5,79.5,79.5h156.1c43.8,0,79.4-35.6,79.4-79.5V164.5
		C400,120.7,364.3,85,320.5,85z M365.7,320.6c0,24.9-20.3,45.2-45.2,45.2h-156c-24.9,0-45.2-20.3-45.2-45.2V164.5
		c0-24.9,20.3-45.2,45.2-45.2h156.1c24.9,0,45.2,20.3,45.2,45.2v156.1H365.7z"/>
	<path d="M326.2,178.2c-10.6,0-19.2-8.6-19.2-19.2c0-10.6,8.6-19.2,19.2-19.2s19.2,8.6,19.2,19.2
		C345.4,169.6,336.8,178.2,326.2,178.2L326.2,178.2z"/>
	<path d="M242.5,161.4c-44.7,0-81.1,36.4-81.1,81.1s36.4,81.1,81.1,81.1s81.1-36.4,81.1-81.1S287.2,161.4,242.5,161.4z M242.5,289.4
		c-25.8,0-46.8-21-46.8-46.8s21-46.8,46.8-46.8s46.8,21,46.8,46.8S268.3,289.4,242.5,289.4z"/>
</g>
</svg>
