<?xml version="1.0" encoding="utf-8"?>
<!-- Generator: Adobe Illustrator 20.1.0, SVG Export Plug-In . SVG Version: 6.00 Build 0)  -->
<svg version="1.1" id="Layer_1" xmlns="http://www.w3.org/2000/svg" xmlns:xlink="http://www.w3.org/1999/xlink" x="0px" y="0px"
	 viewBox="0 0 485 485" style="enable-background:new 0 0 485 485;" xml:space="preserve">
<title  id="title">Linkedin</title>
<desc  id="desc">Connect with LinkedIn</desc>
<rect x="89" y="189.9" width="67.5" height="203.1"/>
<path d="M122.3,162.2h0.4c23.6,0,38.2-15.6,38.2-35.1c-0.4-19.9-14.6-35.1-37.8-35.1c-23,0-38.1,15.2-38.1,35.1
	C85,146.6,99.7,162.2,122.3,162.2z"/>
<path d="M261.4,393V279.6c0-6.1,0.5-12.1,2.2-16.5c4.9-12.1,16-24.7,34.6-24.7c24.4,0,34.2,18.6,34.2,45.9V393H400V276.5
	c0-62.4-33.3-91.4-77.7-91.4c-35.9,0-51.9,19.7-60.9,33.5v0.7H261c0.1-0.2,0.3-0.4,0.4-0.7v-28.8h-67.5c0.9,19.1,0,203.1,0,203.1
	L261.4,393L261.4,393z"/>
</svg>
