<?xml version="1.0" encoding="utf-8"?>
<!-- Generator: Adobe Illustrator 20.1.0, SVG Export Plug-In . SVG Version: 6.00 Build 0)  -->
<svg version="1.1" id="Layer_1" xmlns="http://www.w3.org/2000/svg" xmlns:xlink="http://www.w3.org/1999/xlink" x="0px" y="0px"
	 viewBox="0 0 485 485" style="enable-background:new 0 0 485 485;" xml:space="preserve">
<title>Artboard 1</title>
<path d="M87.5,408c-6.9,0-11.9-2.8-14.9-8.4c-2.8-5.3-3.4-12.6-1.7-20.2c2-9,7-17.1,15.7-25.7c10.9-10.6,27.1-21.5,45.6-30.5
	c9.4-4.6,20.6-9.2,32.6-13.7c13.8-21.5,33.7-55.6,47.9-93c1.7-4.4,3.2-8.8,4.7-13.2c-3.8-8.6-6.9-17.5-9.4-26.6
	c-3.5-11.8-5.9-23.8-7.2-36c-1-10-0.8-20,0.6-29.9c1.3-9.6,3.4-16.3,6.7-21.2c3.3-4.8,8-8.5,13.5-10.4c2.3-0.9,4.7-1.4,7.1-1.6
	l0.6-0.1l0.4-0.1c3.1-0.6,6.2-0.5,9.2,0.4c3.1,1.1,6,2.5,8.8,4.2l0.6,0.3c12.1,5.6,11,15.9,9.2,31.4c-0.2,2.1-0.5,4.4-0.8,7
	c-2,18.9-7.8,49.6-17.9,81.4c0.8,1.7,1.8,3.5,2.7,5.3c7.6,14.3,18.6,30.7,31.8,47.4c6.3,8,13.6,16.5,21.1,25
	c11.7-0.9,23.4-0.8,35.1,0.1c11.5,0.9,22.8,2.7,34,5.4c12,2.9,20.7,6.3,28.1,11c9.3,5.8,16.5,13.6,20.2,21.9
	c4.2,9.3,4.4,19.9,0.4,28.2c-3.5,7.4-10.3,12.9-19.6,15.9c-8.6,2.8-17.8,2.8-26.3,0c-8.5-2.5-18.6-7.9-29.8-15.9
	s-21.9-17.1-34.5-29.6c-5.1-5.1-10.4-10.5-15.6-16.2c-8.3,0.9-17.7,2.4-29.8,4.6c-17.1,3-34,6.9-50.6,11.8c-9.5,2.8-19,5.8-28,9
	c-1.3,1.9-2.5,3.7-3.6,5.4c-17.7,26.1-34.9,46.7-49.9,59.4c-11.2,9.5-21.6,14.9-31.7,16.7C91.1,407.8,89.3,408,87.5,408z
	 M143.8,339.9l-2.8,1.4c-22.4,10.9-34.9,21.5-40.4,26.8c-7.6,7.4-9.4,12.3-10.2,15.8c-0.3,1.3-0.5,2.6-0.5,3.9
	c2.8-0.5,10-2.2,21.6-12.1C118.8,369.5,129.7,358.6,143.8,339.9L143.8,339.9z M312.7,299.2c1.2,1.2,2.3,2.3,3.5,3.5
	c11.8,11.7,21.6,20.2,31.9,27.5c9.4,6.6,17.6,11.1,24,13c4.7,1.6,9.8,1.6,14.5,0.1c2.7-0.9,6.2-2.5,7.6-5.4c1.2-2.5,1.4-7-0.6-11.5
	c-2.1-4.7-6.6-9.4-12.5-13.1c-5.5-3.5-12.3-6.1-22.1-8.5c-10.2-2.4-20.5-4-30.9-4.9C322.9,299.5,317.8,299.3,312.7,299.2
	L312.7,299.2z M230,227.4c-10.6,27-23.8,52.1-35.6,72.1c2-0.6,4-1.2,5.9-1.8c17.3-5.1,34.9-9.2,52.6-12.3c6.4-1.2,12.1-2.1,17.4-2.9
	c-4.5-5.2-8.7-10.4-12.6-15.3C247.6,254.6,238.4,241.3,230,227.4z M233.6,97l-0.3,0.1l-1,0.2h-0.1l-1.2,0.1c-0.8,0-1.5,0.2-2.3,0.5
	h-0.1c-1.6,0.5-2.9,1.5-3.9,2.8c-1,1.5-2.5,5-3.5,12.8c-1.1,8.4-1.3,16.9-0.5,25.4c1.2,10.7,3.3,21.4,6.4,31.7
	c4.4-17.1,7.7-34.5,9.8-52c0.3-2.6,0.6-5,0.8-7.2c0.5-4.5,1-9.2,1.1-11.6l-1-0.6C236.4,98.4,235,97.7,233.6,97z"/>
</svg>
