<?xml version="1.0" encoding="utf-8"?>
<!-- Generator: Adobe Illustrator 20.1.0, SVG Export Plug-In . SVG Version: 6.00 Build 0)  -->
<svg version="1.1" id="Layer_1" xmlns="http://www.w3.org/2000/svg" xmlns:xlink="http://www.w3.org/1999/xlink" x="0px" y="0px"
	 viewBox="0 0 485 485" style="enable-background:new 0 0 485 485;" xml:space="preserve">
<style type="text/css">
	.st0{display:none;}
	.st1{display:inline;fill:#010101;}
</style>
<g class="st0">
	<path class="st1" d="M251.8,221.7c-4.7,0-7.7,2.3-9.4,4.4c-1.7-2.1-4.7-4.4-9.4-4.4c-8,0-13.4,7.4-13.4,14.3
		c0,10.1,19.3,23.6,21.6,25.1c0.4,0.2,0.8,0.4,1.2,0.4s0.8-0.1,1.2-0.4c2.2-1.5,21.6-15,21.6-25.1
		C265.1,229.1,259.8,221.7,251.8,221.7z M242.4,256.8c-7.6-5.4-18.5-15.1-18.5-20.7c0-4.2,3.2-10.1,9.1-10.1c5.4,0,7.3,4.7,7.4,4.9
		c0.3,0.8,1.1,1.4,2,1.4l0,0c0.9,0,1.7-0.5,2-1.4c0.1-0.2,2-4.9,7.4-4.9c5.9,0,9.1,5.9,9.1,10.1C260.9,241.7,250,251.4,242.4,256.8z
		"/>
</g>
<g>
	<path d="M310.3,411H174.7c-14.4,0-26.1-11.7-26.1-26.1V100.2c0-14.4,11.7-26.1,26.1-26.1h135.6c14.4,0,26.1,11.7,26.1,26.1v284.7
		C336.5,399.3,324.7,411,310.3,411z M174.7,91c-5.1,0-9.2,4.1-9.2,9.2v284.7c0,5.1,4.1,9.2,9.2,9.2h135.6c5.1,0,9.2-4.1,9.2-9.2
		V100.2c0-5.1-4.1-9.2-9.2-9.2H174.7z"/>
	<path d="M321.9,348.6H163.1c-5.7,0-10.3-4.6-10.3-10.3V126.1c0-5.7,4.6-10.3,10.3-10.3H322c5.7,0,10.3,4.6,10.3,10.3v212.2
		C332.2,344,327.6,348.6,321.9,348.6z M163.1,124.3c-1,0-1.8,0.8-1.8,1.8v212.2c0,1,0.8,1.8,1.8,1.8H322c1,0,1.8-0.8,1.8-1.8V126.1
		c0-1-0.8-1.8-1.8-1.8C322,124.3,163.1,124.3,163.1,124.3z"/>
	<path d="M242.5,386.2c-8.9,0-16.2-7.2-16.2-16.2s7.2-16.2,16.2-16.2s16.2,7.2,16.2,16.2S251.4,386.2,242.5,386.2z M242.5,360.2
		c-5.4,0-9.8,4.4-9.8,9.8s4.4,9.8,9.8,9.8s9.8-4.4,9.8-9.8S247.9,360.2,242.5,360.2z"/>
	<path d="M261.6,105h-38.1c-1.8,0-3.2-1.4-3.2-3.2s1.4-3.2,3.2-3.2h38.1c1.8,0,3.2,1.4,3.2,3.2S263.3,105,261.6,105z"/>
</g>
</svg>
