<?xml version="1.0" encoding="utf-8"?>
<!-- Generator: Adobe Illustrator 20.1.0, SVG Export Plug-In . SVG Version: 6.00 Build 0)  -->
<svg version="1.1" id="Layer_1" xmlns="http://www.w3.org/2000/svg" xmlns:xlink="http://www.w3.org/1999/xlink" x="0px" y="0px"
	 viewBox="0 0 485 485" style="enable-background:new 0 0 485 485;" xml:space="preserve">
<path d="M157.6,267.2c4.1,1.7,7.9,0.1,9.1-4.5c0.9-3.2,2.8-11.2,3.8-14.5c1.2-4.6,0.7-6.1-2.6-10.1c-7.3-8.6-12-19.7-12-35.5
	c0-45.7,34.2-86.6,89.1-86.6c48.6,0,75.3,29.7,75.3,69.4c0,52.1-23,96.1-57.4,96.1c-18.9,0-33.1-15.6-28.5-34.8
	c5.5-22.9,16-47.7,16-64.2c0-14.8-7.9-27.2-24.4-27.2c-19.4,0-34.9,20-34.9,46.9c0,17.1,5.8,28.6,5.8,28.6s-19.8,83.9-23.3,98.6
	c-6.9,29.2-1,65.1-0.5,68.7c0.3,2.1,3.1,2.7,4.3,1c1.8-2.3,24.8-30.7,32.7-59.2c2.2-8.1,12.7-49.8,12.7-49.8
	c6.3,12,24.7,22.6,44.2,22.6c58.2,0,97.6-53,97.6-124C364.4,135,319,85,249.9,85c-86,0-129.3,61.6-129.3,113
	C120.6,229.2,132.4,256.9,157.6,267.2z"/>
</svg>
