<?xml version="1.0" encoding="utf-8"?>
<!-- Generator: Adobe Illustrator 20.1.0, SVG Export Plug-In . SVG Version: 6.00 Build 0)  -->
<svg version="1.1" id="Layer_1" xmlns="http://www.w3.org/2000/svg" xmlns:xlink="http://www.w3.org/1999/xlink" x="0px" y="0px"
	 viewBox="0 0 485 485" style="enable-background:new 0 0 485 485;" xml:space="preserve">
<path d="M339.7,400H400c0-86.8-35.3-165.5-92.4-222.6C250.6,120.4,172,85,85.1,85v60.1C225.5,145.2,339.6,259.5,339.7,400z"/>
<path d="M232.5,399.9v0.1h60.4c-0.1-57.3-23.3-109.2-61-146.9s-89.5-61-146.8-61v60.1c39.3,0,76.4,15.5,104.2,43.3
	C217,323.3,232.4,360.5,232.5,399.9z"/>
<path d="M126.8,399.6c11.6,0,22-4.6,29.6-12.2s12.2-17.9,12.3-29.4c0-11.5-4.7-21.8-12.3-29.5c-7.6-7.6-18-12.3-29.6-12.3
	s-21.9,4.7-29.5,12.2c-7.6,7.6-12.3,18-12.3,29.5s4.7,21.8,12.3,29.4C104.9,395,115.3,399.6,126.8,399.6z"/>
</svg>
