<?xml version="1.0" encoding="utf-8"?>
<!-- Generator: Adobe Illustrator 20.1.0, SVG Export Plug-In . SVG Version: 6.00 Build 0)  -->
<svg version="1.1" id="Layer_1" xmlns="http://www.w3.org/2000/svg" xmlns:xlink="http://www.w3.org/1999/xlink" x="0px" y="0px"
	 viewBox="0 0 485 485" style="enable-background:new 0 0 485 485;" xml:space="preserve">
<path d="M285,309.9C261.4,328,233.1,337,204.9,337c-35.3,0-70.5-14-96.4-41.8c-23.9-25.7-36.4-59.1-35.1-94.2
	c1.3-34.8,16-67.4,41.3-91.8c25.7-24.8,59.2-37.8,94.4-36.6c35.3,1.2,68.1,16.5,92.2,43.1l0,0c23.6,26.1,36,59.7,34.9,94.5
	c-0.9,27.8-10.3,53.9-26.8,75.5l65.5,64.5c3,3,8.6,7.8,32.2,33.1c6.4,6.9,6.2,17.7-0.6,24.3c-3.4,3.2-7.7,4.9-12,4.9
	c-4.4,0-8.9-1.7-12.2-5.1 M204.9,107c-24.6,0-47.9,9.5-66,27c-39.3,37.9-41.5,98.4-5,137.5c36.5,39.2,98.1,41.3,137.3,4.8
	c39.2-36.6,41.2-97,4.6-137.5C258,119.2,234,108,208.1,107.1C207,107.1,205.9,107,204.9,107z"/>
</svg>
