<?xml version="1.0" encoding="utf-8"?>
<!-- Generator: Adobe Illustrator 20.1.0, SVG Export Plug-In . SVG Version: 6.00 Build 0)  -->
<svg version="1.1" id="Layer_1" xmlns="http://www.w3.org/2000/svg" xmlns:xlink="http://www.w3.org/1999/xlink" x="0px" y="0px"
	 viewBox="0 0 485 485" style="enable-background:new 0 0 485 485;" xml:space="preserve">
<path d="M96.4,242.5c0,80.7,65.4,146.1,146.1,146.1c7.8,0,15.4-0.6,22.8-1.8c13.5,8.3,29.4,13.1,46.4,13.1
	c48.8,0,88.3-39.5,88.3-88.3c0-17-4.8-32.9-13.2-46.4c1.2-7.4,1.8-15,1.8-22.8c0-80.7-65.4-146.2-146.1-146.2
	c-7.8,0-15.4,0.6-22.8,1.8c-13.5-8.2-29.4-13-46.4-13C124.5,85,85,124.5,85,173.3c0,17,4.8,32.9,13.1,46.4
	C97,227.2,96.4,234.7,96.4,242.5z M274.9,268.6c-3.9-3.7-8.9-6.5-15.2-8.5c-6.3-2-14.7-4.1-25.2-6.3c-14.1-3.1-26-6.7-35.5-10.8
	c-9.6-4.1-17.2-9.8-22.9-17s-8.5-16.2-8.5-26.8c0-10.1,3-19.2,9-27.1c6-7.9,14.6-14,25.9-18.2c11.2-4.2,24.5-6.3,39.6-6.3
	c12.1,0,22.6,1.4,31.5,4.2c8.8,2.8,16.2,6.5,22.1,11.2s10.2,9.5,12.9,14.7c2.7,5.1,4.1,10.2,4.1,15.1c0,4.6-1.8,8.7-5.2,12.3
	c-3.5,3.6-7.9,5.5-13,5.5c-4.6,0-8.3-1.1-10.8-3.3s-5-5.7-7.8-10.6c-3.5-6.8-7.8-12.1-12.7-15.9c-4.8-3.7-12.7-5.6-23.7-5.6
	c-10.2,0-18.3,2.1-24.5,6.2c-6.2,4.1-9.1,8.9-9.2,14.5c0,3.5,1,6.5,3.1,9c2.1,2.6,5,4.8,8.6,6.7c3.7,1.9,7.5,3.4,11.2,4.4
	c3.8,1.1,10.2,2.6,19,4.7c11.1,2.4,21.1,5.1,30.1,8s16.7,6.4,23,10.6c6.4,4.2,11.4,9.5,15,16c3.6,6.4,5.4,14.3,5.4,23.6
	c0,11.2-3.1,21.2-9.3,30.1c-6.2,8.9-15.3,15.9-27.1,20.8c-11.9,5-25.9,7.5-42.2,7.5c-19.5,0-35.5-3.4-48.3-10.3
	c-9-4.9-16.4-11.5-22-19.8c-5.7-8.2-8.5-16.3-8.5-24.2c0-4.6,1.8-8.7,5.2-12c3.5-3.3,8-5,13.3-5c4.3,0,8.1,1.3,11.1,3.9
	s5.5,6.3,7.6,11.3c2.5,5.8,5.2,10.6,8,14.4s6.8,7,12,9.4c5.1,2.5,11.9,3.7,20.5,3.7c11.7,0,21.1-2.5,28.3-7.5
	c7.3-5,10.7-11.1,10.7-18.5C280.6,277,278.7,272.3,274.9,268.6z"/>
</svg>
