<?xml version="1.0" encoding="utf-8"?>
<!-- Generator: Adobe Illustrator 20.1.0, SVG Export Plug-In . SVG Version: 6.00 Build 0)  -->
<svg version="1.1" id="Layer_1" xmlns="http://www.w3.org/2000/svg" xmlns:xlink="http://www.w3.org/1999/xlink" x="0px" y="0px"
	 viewBox="0 0 485 485" style="enable-background:new 0 0 485 485;" xml:space="preserve">
<title  id="title">Snapchat</title>
<desc  id="desc">Snap Texas Tech</desc>
<path d="M244.5,399.7c-0.8,0-1.7,0-2.5-0.1l0,0c-0.5,0.1-1.1,0.1-1.7,0.1c-19.9,0-32.7-9-45.1-17.8c-8.5-6.1-16.6-11.8-26.1-13.3
	c-4.6-0.8-9.3-1.2-13.7-1.2c-8.1,0-14.4,1.2-19,2.1c-2.8,0.5-5.2,1-7.1,1c-1.9,0-4-0.4-4.9-3.5c-0.8-2.7-1.3-5.3-1.9-7.8
	c-1.4-6.5-2.4-10.4-5.2-10.9c-31.6-4.9-40.7-11.5-42.7-16.2c-0.3-0.7-0.4-1.3-0.5-2c-0.1-1.8,1.2-3.4,3-3.7
	c48.6-8,70.4-57.7,71.3-59.8c0-0.1,0.1-0.1,0.1-0.2c3-6,3.6-11.3,1.8-15.6c-3.3-7.9-14.2-11.3-21.4-13.6c-1.8-0.5-3.5-1.1-4.7-1.6
	c-14.4-5.7-15.6-11.5-15-14.5c1-5.1,7.8-8.6,13.2-8.6c1.5,0,2.8,0.2,3.9,0.8c6.5,3,12.3,4.5,17.3,4.5c7,0,10-2.9,10.4-3.3
	c-0.2-3.3-0.4-6.7-0.6-10.2c-1.5-23-3.2-51.5,4-67.8c21.8-48.9,68-52.7,81.7-52.7c0.4,0,6-0.1,6-0.1h0.8c13.7,0,60,3.8,81.8,52.7
	c7.3,16.3,5.5,44.9,4,67.8l-0.1,1c-0.2,3.2-0.4,6.3-0.5,9.3c0.4,0.4,3.2,3,9.5,3.3l0,0c4.8-0.2,10.3-1.7,16.3-4.5
	c1.8-0.8,3.8-1,5.1-1c2.1,0,4.1,0.4,5.8,1.1l0.1,0.1c4.9,1.8,8.1,5.2,8.1,8.7c0.1,3.4-2.5,8.4-15.1,13.4c-1.3,0.5-3,1-4.7,1.6
	c-7.2,2.3-18.1,5.8-21.4,13.6c-1.8,4.3-1.2,9.5,1.8,15.5c0,0.1,0.1,0.1,0.1,0.2c0.9,2.1,22.7,51.8,71.3,59.8c1.8,0.3,3.1,1.9,3,3.7
	c-0.1,0.7-0.2,1.4-0.5,2.1c-2,4.7-11,11.3-42.7,16.2c-2.6,0.4-3.6,3.8-5.2,10.9c-0.5,2.5-1.2,5.1-1.9,7.8c-0.7,2.3-2.1,3.4-4.5,3.4
	h-0.4c-1.7,0-4.1-0.3-7.1-0.9c-5.3-1-11.3-2-19-2c-4.5,0-9.1,0.4-13.7,1.2c-9.5,1.6-17.5,7.3-26.1,13.3
	C277.2,390.7,264.4,399.7,244.5,399.7z"/>
</svg>
