<?xml version="1.0" encoding="utf-8"?>
<!-- Generator: Adobe Illustrator 20.1.0, SVG Export Plug-In . SVG Version: 6.00 Build 0)  -->
<svg version="1.1" id="Layer_1" xmlns="http://www.w3.org/2000/svg" xmlns:xlink="http://www.w3.org/1999/xlink" x="0px" y="0px"
	 viewBox="0 0 485 485" style="enable-background:new 0 0 485 485;" xml:space="preserve">
<path d="M100.2,303.6c0.7,0,1.2-0.5,1.3-1.3l3.5-27.7l-3.5-28.3c-0.1-0.8-0.6-1.3-1.3-1.3c-0.7,0-1.2,0.5-1.3,1.3l-3.1,28.3
	l3.1,27.7C99,303.1,99.5,303.6,100.2,303.6z"/>
<path d="M88.6,293.1c0.6,0,1.2-0.5,1.3-1.2l2.7-17.2l-2.7-17.5c-0.1-0.7-0.6-1.2-1.3-1.2c-0.7,0-1.2,0.5-1.3,1.2L85,274.6l2.3,17.2
	C87.4,292.6,87.9,293.1,88.6,293.1z"/>
<path d="M112.6,308.5c0.8,0,1.5-0.6,1.6-1.5l3.3-32.3l-3.3-33.6c-0.1-0.9-0.8-1.5-1.6-1.5c-0.8,0-1.5,0.6-1.6,1.5l-2.9,33.6L111,307
	C111.1,307.9,111.8,308.5,112.6,308.5z"/>
<path d="M125.1,309.8c1,0,1.8-0.8,1.8-1.8l3.2-33.4l-3.2-34.5c-0.1-1-0.9-1.8-1.8-1.8c-1,0-1.8,0.8-1.8,1.8l-2.8,34.5l2.8,33.4
	C123.3,309.1,124.1,309.8,125.1,309.8z"/>
<path d="M137.6,310.4c1.1,0,2-0.9,2.1-2.1l3-33.6l-3-32c-0.1-1.2-1-2.1-2.1-2.1s-2,0.9-2.1,2.1l-2.6,32l2.6,33.6
	C135.6,309.5,136.5,310.4,137.6,310.4z"/>
<path d="M150.3,310.7c1.3,0,2.3-1,2.4-2.4l2.8-33.6l-2.8-52.1c-0.1-1.3-1.1-2.4-2.4-2.4c-1.3,0-2.3,1-2.4,2.4l-2.5,52l2.5,33.6
	C148,309.6,149,310.7,150.3,310.7z"/>
<path d="M162.9,310.9c1.4,0,2.6-1.2,2.7-2.6l2.6-33.4l-2.6-64c-0.1-1.5-1.2-2.6-2.7-2.6c-1.4,0-2.6,1.2-2.7,2.6l-2.3,64l2.3,33.4
	C160.3,309.7,161.5,310.9,162.9,310.9z"/>
<path d="M176,310.7c1.6,0,2.9-1.3,2.9-2.9l2.4-33.1l-2.4-69.3c-0.1-1.6-1.3-2.9-2.9-2.9c-1.6,0-2.9,1.3-2.9,2.9l-2.1,69.3l2.1,33.1
	C173.1,309.4,174.4,310.7,176,310.7z"/>
<path d="M189,310.7c1.7,0,3.1-1.4,3.2-3.2l2.2-32.9l-2.2-71.6c-0.1-1.8-1.5-3.2-3.2-3.2s-3.1,1.4-3.2,3.2l-2,71.6l2,32.9
	C185.8,309.3,187.2,310.7,189,310.7z"/>
<path d="M202.1,310.7c1.9,0,3.4-1.5,3.5-3.4l2.1-32.5l-2.1-69.8c-0.1-1.9-1.6-3.4-3.5-3.4s-3.4,1.5-3.5,3.4l-1.8,69.8l1.8,32.6
	C198.6,309.2,200.2,310.7,202.1,310.7z"/>
<path d="M215.2,310.7c2,0,3.7-1.6,3.7-3.7l1.9-32.3l-1.9-67.3c0-2.1-1.7-3.7-3.7-3.7c-2.1,0-3.7,1.6-3.7,3.7l-1.7,67.2l1.7,32.4
	C211.5,309.1,213.2,310.7,215.2,310.7z"/>
<path d="M224.5,307c0,0.9,0.4,1.7,0.9,2.4c0.7,0.9,1.8,1.4,3.1,1.4c1.1,0,2.1-0.4,2.8-1.2c0.7-0.7,1.2-1.7,1.2-2.8l0.2-3.2l1.5-28.9
	l-1.7-80c0-1.4-0.7-2.6-1.8-3.3c-0.6-0.4-1.4-0.7-2.2-0.7s-1.5,0.2-2.2,0.6c-1.1,0.7-1.8,1.9-1.8,3.3v0.8l-1.5,79.2l1.5,32.2
	C224.5,306.9,224.5,306.9,224.5,307z"/>
<path d="M237.5,306.4c0,2.3,1.9,4.2,4.3,4.2c2.3,0,4.2-1.9,4.3-4.3l1.9-31.6l-1.9-87.3c0-1.5-0.9-2.9-2.1-3.6
	c-0.6-0.4-1.4-0.6-2.2-0.6c-1,0-2,0.4-2.7,1c-0.9,0.8-1.6,2-1.6,3.3v0.4l-1.7,86.8l0.9,16.1L237.5,306.4z"/>
<path d="M253.9,310.7c0.1,0,107.4,0,107.4,0c21.4,0,38.7-17.2,38.7-38.6s-17.3-38.7-38.7-38.7c-5.3,0-10.4,1.1-15,3
	c-3.1-34.9-32.4-62.3-68.1-62.3c-8.7,0-17.3,1.7-24.8,4.6c-2.9,1.1-3.7,2.3-3.7,4.6v123C249.7,308.6,251.5,310.5,253.9,310.7z"/>
</svg>
