<?xml version="1.0" encoding="utf-8"?>
<!-- Generator: Adobe Illustrator 20.1.0, SVG Export Plug-In . SVG Version: 6.00 Build 0)  -->
<svg version="1.1" id="Layer_1" xmlns="http://www.w3.org/2000/svg" xmlns:xlink="http://www.w3.org/1999/xlink" x="0px" y="0px"
	 viewBox="0 0 485 485" style="enable-background:new 0 0 485 485;" xml:space="preserve">
<path d="M155.4,363.9c38.9,0,70.4-31.5,70.4-70.4v-102c0-9.2,7.5-16.7,16.7-16.7s16.7,7.4,16.7,16.7v20.4l24.2,10.2l29.6-10.2v-20.4
	c0-38.9-31.5-70.4-70.4-70.4s-70.4,31.5-70.4,70.4v100.1c0,9.2-7.5,16.7-16.7,16.7s-16.7-7.5-16.7-16.7v-44.5H85v46.3
	C85,332.4,116.5,363.9,155.4,363.9z"/>
<path d="M312.9,248.1l-29.6,10.2l-24.2-10.2v45.4c0,38.9,31.5,70.4,70.4,70.4s70.4-31.5,70.4-70.4V249h-53.7v44.5
	c0,9.2-7.5,16.7-16.7,16.7s-16.7-7.5-16.7-16.7L312.9,248.1L312.9,248.1z"/>
</svg>
