<?xml version="1.0" encoding="utf-8"?>
<!-- Generator: Adobe Illustrator 20.1.0, SVG Export Plug-In . SVG Version: 6.00 Build 0)  -->
<svg version="1.1" id="Layer_1" xmlns="http://www.w3.org/2000/svg" xmlns:xlink="http://www.w3.org/1999/xlink" x="0px" y="0px"
	 viewBox="0 0 485 485" style="enable-background:new 0 0 485 485;" xml:space="preserve">
<path d="M124.6,187.7c10.8,0,20.9,15.7,30.3,47.2l12.8,43.5l13,43.5c12.3,31.7,27.7,47.6,46.3,47.6c29.8-0.1,66-26.1,108.8-77.9
	c41.5-49.5,62.9-88.5,64.2-117.2c0.1-2.4,0.2-4.7,0.2-6.9c-0.2-33.9-15.4-51.1-45.8-51.9h-3.6c-42.1,0.2-70.6,23-85.4,68.7
	c8.3-3,15.9-4.6,23.2-4.6c14.3,0,21.5,6.5,21.5,19.6c0,1.7-0.2,3.5-0.4,5.5c-1,9.6-8,24.3-21.1,44.3c-13.4,19.4-23.3,29.1-29.8,29.1
	c-8.3-0.2-16.1-15.1-23.4-44.9c-1.3-4.5-2.9-12.3-4.9-23.5S226,184,223,166c-5.3-31.5-19-47.2-40.9-47.2c-1.5,0-2.9,0.1-4.4,0.2
	c-10.6,1.2-26.2,10.2-46.6,26.6l-22.8,19L85,183.7l15,17.7C114,192.3,122.2,187.7,124.6,187.7z"/>
</svg>
