<?xml version="1.0" encoding="utf-8"?>
<!-- Generator: Adobe Illustrator 20.1.0, SVG Export Plug-In . SVG Version: 6.00 Build 0)  -->
<svg version="1.1" id="Layer_1" xmlns="http://www.w3.org/2000/svg" xmlns:xlink="http://www.w3.org/1999/xlink" x="0px" y="0px"
	 viewBox="0 0 485 485" style="enable-background:new 0 0 485 485;" xml:space="preserve">
<path d="M124.5,347.9c39.1,4.4,78.6,4.4,117.9,4.4c39.4,0,78.9,0,118-4.4c16.5-1.8,30.2-14.2,34.1-31c5.5-23.8,5.5-49.9,5.5-74.5
	s0-50.6-5.4-74.4c-3.9-16.8-17.6-29.1-34.1-31c-39.1-4.4-78.6-4.4-117.9-4.4c-39.4,0-78.9,0-118,4.4c-16.5,1.8-30.2,14.2-34,31
	c-5.5,23.8-5.6,49.9-5.6,74.5s0,50.6,5.5,74.5C94.3,333.7,108,346.1,124.5,347.9z M201.9,187.2c33.4,17.4,66.5,34.7,100.1,52.2
	c-33.5,17.4-66.7,34.6-100.1,51.9V187.2L201.9,187.2z"/>
</svg>
